<?xml version="1.0" standalone="no"?>
<!DOCTYPE svg PUBLIC "-//W3C//DTD SVG 20010904//EN"
 "http://www.w3.org/TR/2001/REC-SVG-20010904/DTD/svg10.dtd">
<svg version="1.0" xmlns="http://www.w3.org/2000/svg"
 width="1128.000000pt" height="1128.000000pt" viewBox="0 0 1128.000000 1128.000000"
 preserveAspectRatio="xMidYMid meet">
<metadata>
Created by potrace 1.11, written by Peter Selinger 2001-2013
</metadata>
<g transform="translate(0.000000,1128.000000) scale(0.100000,-0.100000)"
fill="#000000" stroke="none">
<path d="M4887 11242 l-48 -3 2 -38 c2 -20 -1 -42 -5 -49 -4 -7 -2 -12 4 -12
7 0 8 -6 2 -17 -5 -10 -6 -27 -2 -38 4 -11 4 -30 -1 -42 -5 -15 -5 -23 2 -23
6 0 6 -6 0 -18 -5 -10 -6 -24 -1 -31 4 -8 5 -25 1 -40 -7 -28 -6 -90 3 -98 2
-3 1 -16 -4 -29 -6 -16 -6 -24 1 -24 6 0 6 -6 0 -18 -6 -10 -6 -24 -1 -32 5
-8 6 -18 4 -22 -8 -12 -9 -106 -2 -114 4 -3 3 -18 -2 -32 -4 -15 -4 -37 0 -48
5 -11 4 -27 0 -34 -5 -7 -5 -23 0 -34 4 -12 4 -29 1 -40 -4 -10 -4 -40 -1 -66
3 -25 3 -59 -1 -73 -4 -15 -3 -27 1 -27 5 0 5 -12 1 -27 -7 -30 -6 -91 3 -100
2 -3 1 -16 -4 -29 -6 -16 -6 -24 1 -24 6 0 6 -6 0 -18 -5 -10 -6 -24 -1 -31 4
-8 5 -25 1 -40 -7 -28 -6 -90 3 -98 2 -3 1 -16 -4 -29 -6 -16 -6 -24 1 -24 6
0 6 -6 0 -18 -6 -10 -6 -24 -1 -32 5 -8 6 -18 4 -22 -8 -12 -9 -106 -2 -114 4
-3 3 -18 -2 -32 -4 -15 -4 -37 0 -48 5 -11 4 -27 0 -34 -5 -7 -5 -23 0 -34 4
-12 4 -29 1 -40 -4 -10 -4 -40 -1 -66 3 -25 3 -59 -1 -73 -4 -15 -3 -27 1 -27
5 0 5 -12 1 -27 -7 -30 -6 -91 3 -100 2 -3 1 -16 -4 -29 -6 -16 -6 -24 1 -24
6 0 6 -6 0 -18 -5 -10 -6 -24 -1 -31 4 -8 5 -25 1 -40 -7 -28 -6 -90 3 -98 2
-3 1 -16 -4 -29 -6 -16 -6 -24 1 -24 6 0 6 -6 0 -18 -6 -10 -6 -24 -1 -32 5
-8 6 -18 4 -22 -8 -12 -9 -106 -2 -114 4 -3 3 -18 -2 -32 -4 -15 -4 -37 0 -48
5 -11 4 -27 0 -34 -5 -7 -5 -23 0 -34 4 -12 4 -29 1 -40 -4 -10 -4 -40 -1 -66
3 -25 3 -59 -1 -73 -4 -15 -3 -27 1 -27 5 0 5 -12 1 -27 -7 -30 -6 -91 3 -100
2 -3 1 -16 -4 -29 -6 -16 -6 -24 1 -24 6 0 7 -5 3 -12 -4 -7 -7 -29 -5 -50 l2
-39 -71 2 c-39 1 -73 -1 -76 -4 -3 -3 -17 -2 -30 3 -14 6 -26 6 -29 0 -3 -5
-15 -6 -28 -1 -12 5 -31 5 -42 1 -11 -4 -32 -4 -47 1 -15 4 -30 4 -32 0 -3 -4
-27 -5 -53 -1 -27 3 -60 3 -73 0 -14 -4 -37 -3 -52 1 -17 5 -28 4 -28 -2 0 -6
-8 -5 -20 1 -11 6 -20 7 -20 2 0 -5 -21 -6 -48 -2 -26 3 -59 3 -72 0 -14 -4
-37 -3 -52 1 -17 5 -28 4 -28 -2 0 -6 -8 -5 -20 1 -11 6 -20 7 -20 2 0 -5 -21
-6 -48 -2 -26 3 -59 3 -72 0 -14 -4 -37 -3 -52 1 -17 5 -28 4 -28 -2 0 -6 -8
-5 -20 1 -11 6 -20 7 -20 2 0 -5 -21 -6 -48 -2 -26 3 -59 3 -72 0 -14 -4 -37
-3 -52 1 -17 5 -28 4 -28 -2 0 -6 -8 -5 -20 1 -11 6 -20 7 -20 2 0 -5 -21 -6
-48 -2 -26 3 -59 3 -72 0 -14 -4 -37 -3 -52 1 -17 5 -28 4 -28 -2 0 -6 -8 -5
-20 1 -11 6 -20 7 -20 3 0 -4 -36 -6 -80 -3 -45 3 -89 2 -98 -1 -9 -4 -27 -3
-39 2 -13 5 -25 4 -28 -1 -3 -5 -15 -6 -28 -1 -12 5 -31 5 -42 1 -11 -4 -24
-5 -28 -3 -11 7 -157 6 -164 0 -3 -3 -16 -2 -29 3 -14 6 -26 6 -29 0 -3 -5
-15 -6 -28 -1 -12 5 -31 5 -42 1 -11 -4 -24 -5 -28 -3 -11 7 -157 6 -164 0 -3
-3 -16 -2 -29 3 -14 6 -26 6 -29 0 -3 -5 -15 -6 -28 -1 -12 5 -31 5 -42 1 -11
-4 -24 -5 -28 -3 -11 7 -157 6 -164 0 -3 -3 -16 -2 -29 3 -14 6 -26 6 -29 0
-3 -5 -15 -6 -28 -1 -12 5 -31 5 -42 1 -11 -4 -32 -4 -47 1 -15 4 -30 4 -32 0
-3 -4 -27 -5 -53 -1 -27 3 -60 3 -73 0 -14 -3 -42 -3 -62 1 -21 3 -38 3 -38
-1 0 -3 -14 -5 -30 -2 l-30 4 0 -68 c-1 -38 -1 -159 0 -269 1 -110 1 -207 1
-215 1 -162 1 -1011 0 -1027 0 -13 5 -23 12 -24 42 -4 55 -3 80 3 15 4 27 3
27 -2 0 -5 12 -5 28 -2 15 4 41 6 57 5 70 -6 154 -5 164 1 6 4 11 2 11 -4 0
-7 6 -8 18 -1 10 5 24 6 31 1 8 -4 25 -5 40 -1 28 7 90 6 98 -2 2 -3 17 -2 32
3 16 4 34 4 41 0 7 -5 24 -4 37 1 15 5 23 5 23 -2 0 -6 6 -6 18 0 10 5 24 6
31 1 8 -4 25 -5 40 -1 14 3 40 5 56 4 70 -6 154 -5 164 1 6 4 11 2 11 -4 0 -7
6 -8 18 -1 10 5 24 6 31 1 8 -4 25 -5 40 -1 28 7 90 6 98 -2 2 -3 17 -2 32 3
16 4 34 4 41 0 7 -5 24 -4 37 1 15 5 23 5 23 -2 0 -6 6 -6 18 0 10 5 24 6 31
1 8 -4 25 -5 40 -1 14 3 40 5 56 4 70 -6 154 -5 164 1 6 4 11 2 11 -4 0 -7 6
-8 18 -1 10 5 24 6 31 1 8 -4 25 -5 40 -1 28 7 90 6 98 -2 2 -3 17 -2 32 3 16
4 34 4 41 0 7 -5 24 -4 37 1 15 5 23 5 23 -2 0 -6 6 -6 18 0 10 5 24 6 31 1 8
-4 25 -5 40 -1 14 3 40 5 56 4 70 -6 154 -5 164 1 6 4 11 2 11 -4 0 -7 6 -8
18 -1 10 5 24 6 31 1 8 -4 25 -5 40 -1 28 7 90 6 98 -2 2 -3 17 -2 32 3 16 4
34 4 41 0 7 -5 24 -4 37 1 15 5 23 5 23 -2 0 -6 6 -6 18 0 10 5 24 6 31 1 8
-4 25 -5 40 -1 14 3 40 5 56 4 70 -6 154 -5 164 1 6 4 11 2 11 -4 0 -7 6 -8
18 -1 10 5 24 6 31 1 8 -4 25 -5 40 -1 28 7 90 6 98 -3 3 -2 16 -1 29 4 16 6
24 6 24 -1 0 -6 4 -8 9 -5 5 3 11 -14 13 -39 2 -25 1 -45 -3 -45 -6 0 -2 -70
5 -77 3 -3 1 -16 -4 -29 -6 -16 -6 -24 1 -24 6 0 6 -6 0 -18 -5 -10 -6 -24 -1
-31 4 -8 5 -25 1 -40 -7 -28 -6 -90 3 -98 2 -3 1 -16 -4 -29 -6 -16 -6 -24 1
-24 6 0 6 -6 0 -18 -6 -10 -6 -24 -1 -32 5 -8 6 -18 4 -22 -8 -12 -9 -106 -2
-114 4 -3 3 -18 -2 -32 -4 -15 -4 -37 0 -48 5 -11 4 -27 0 -34 -5 -7 -5 -23 0
-34 4 -12 4 -29 1 -40 -4 -10 -4 -40 -1 -66 3 -25 3 -59 -1 -73 -4 -15 -3 -27
1 -27 5 0 5 -12 1 -27 -7 -30 -6 -91 3 -100 2 -3 1 -16 -4 -29 -6 -16 -6 -24
1 -24 6 0 6 -6 0 -18 -5 -10 -6 -24 -1 -31 4 -8 5 -25 1 -40 -7 -28 -6 -90 3
-98 2 -3 1 -16 -4 -29 -6 -16 -6 -24 1 -24 6 0 6 -6 0 -18 -6 -10 -6 -24 -1
-32 5 -8 6 -18 4 -22 -8 -12 -9 -106 -2 -114 4 -3 3 -18 -2 -32 -4 -15 -4 -37
0 -48 5 -11 4 -27 0 -34 -5 -7 -5 -23 0 -34 4 -12 4 -29 1 -40 -4 -10 -4 -40
-1 -66 3 -25 3 -59 -1 -73 -4 -15 -3 -27 1 -27 5 0 5 -12 1 -27 -7 -30 -6 -91
3 -100 2 -3 1 -16 -4 -29 -6 -16 -6 -24 1 -24 6 0 6 -6 0 -18 -5 -10 -6 -24
-1 -31 4 -8 5 -25 1 -40 -7 -28 -6 -90 3 -98 2 -3 1 -16 -4 -29 -6 -16 -6 -24
1 -24 6 0 6 -6 0 -18 -6 -10 -6 -24 -1 -32 5 -8 6 -18 4 -22 -8 -12 -9 -106
-2 -114 4 -3 3 -18 -2 -32 -4 -15 -4 -37 0 -48 5 -11 4 -27 0 -34 -5 -7 -5
-23 0 -34 4 -12 4 -29 1 -40 -4 -10 -4 -40 -1 -66 3 -25 3 -59 -1 -73 -4 -15
-3 -27 1 -27 5 0 5 -12 1 -27 -7 -30 -6 -91 3 -100 2 -3 1 -16 -4 -29 -6 -16
-6 -24 1 -24 6 0 6 -6 0 -18 -5 -10 -6 -24 -1 -31 4 -8 5 -25 1 -40 -7 -28 -6
-90 3 -98 2 -3 1 -16 -4 -29 -6 -16 -6 -24 1 -24 6 0 6 -6 0 -18 -6 -10 -6
-24 -1 -32 5 -8 6 -18 4 -22 -8 -12 -9 -106 -2 -114 4 -3 3 -18 -2 -32 -4 -15
-4 -37 0 -48 5 -11 4 -27 0 -34 -5 -7 -5 -23 0 -34 4 -12 4 -29 1 -40 -4 -10
-4 -40 -1 -66 3 -25 3 -59 -1 -73 -4 -15 -3 -27 1 -27 5 0 5 -12 1 -27 -7 -30
-6 -91 3 -100 2 -3 1 -16 -4 -29 -6 -16 -6 -24 1 -24 6 0 6 -6 0 -18 -5 -10
-6 -24 -1 -31 4 -8 5 -25 1 -40 -7 -28 -6 -90 3 -98 2 -3 1 -16 -4 -29 -6 -16
-6 -24 1 -24 6 0 6 -6 0 -18 -6 -10 -6 -24 -1 -32 5 -8 6 -18 4 -22 -8 -12 -9
-106 -2 -114 4 -3 3 -18 -2 -32 -4 -15 -4 -37 0 -48 5 -11 4 -27 0 -34 -5 -7
-5 -23 0 -34 4 -12 4 -29 1 -40 -4 -10 -4 -40 -1 -66 3 -25 3 -59 -1 -73 -4
-15 -3 -27 1 -27 5 0 5 -12 1 -27 -7 -30 -6 -91 3 -100 2 -3 1 -16 -4 -29 -6
-16 -6 -24 1 -24 6 0 6 -6 0 -18 -5 -10 -6 -24 -1 -31 4 -8 5 -25 1 -40 -7
-28 -6 -90 3 -98 2 -3 1 -16 -4 -29 -6 -16 -6 -24 1 -24 6 0 6 -6 0 -18 -5
-10 -6 -24 -1 -31 4 -7 5 -25 1 -39 -4 -14 -4 -47 -1 -73 4 -27 2 -53 -3 -58
-5 -5 -4 -11 2 -15 7 -5 8 -13 2 -25 -5 -9 -6 -23 -1 -30 4 -8 5 -25 1 -40 -7
-28 -6 -90 2 -98 3 -2 2 -17 -3 -32 -4 -16 -4 -34 0 -41 5 -7 4 -24 -1 -37 -5
-15 -5 -23 2 -23 6 0 6 -6 0 -18 -5 -10 -6 -24 -1 -31 4 -8 5 -25 1 -40 -3
-14 -5 -39 -4 -56 6 -73 5 -143 -1 -153 -3 -6 -2 -13 4 -17 6 -4 7 -12 1 -24
-5 -9 -6 -23 -1 -30 4 -8 5 -25 1 -40 -7 -28 -6 -90 2 -98 3 -2 1 -17 -3 -33
-11 -39 -1 -42 125 -40 11 1 46 0 78 0 31 -1 61 2 66 5 5 3 12 1 16 -5 4 -6
11 -8 16 -5 5 3 35 6 66 5 68 -1 43 -1 308 -1 116 0 252 0 303 1 50 0 100 1
110 1 103 0 149 0 217 -1 44 -1 87 -1 95 -1 8 0 40 1 71 1 31 1 60 0 65 -1 25
-4 64 2 59 10 -3 5 -2 12 3 14 8 5 7 55 -2 94 -3 13 -2 25 2 27 4 2 6 22 4 43
-4 53 -5 73 -2 113 1 19 -1 45 -4 57 -2 13 -1 23 3 23 4 0 5 20 1 44 -4 25 -3
52 2 60 6 10 5 16 -1 16 -7 0 -7 8 -2 23 5 12 5 30 2 41 -4 10 -5 37 -3 60 2
22 4 49 3 59 -3 53 -3 65 -1 97 1 19 -1 45 -3 57 -3 13 -2 25 3 28 5 3 5 18 1
33 -4 15 -5 38 -1 52 3 13 3 45 0 71 -3 25 -3 57 1 71 4 14 3 31 -1 38 -5 8
-5 23 0 34 4 12 4 30 0 41 -4 11 -4 32 0 46 4 15 4 32 0 40 -5 7 -5 20 -1 28
5 9 5 25 1 36 -4 11 -4 32 0 46 4 15 4 32 0 39 -5 7 -5 23 0 34 4 12 4 30 0
41 -4 11 -4 32 1 47 4 14 5 29 2 32 -3 3 -5 38 -4 78 1 40 2 80 1 88 0 8 0 24
0 35 1 11 1 27 1 35 -1 8 -1 29 0 45 0 17 0 36 0 43 -1 17 -1 50 0 107 0 17 0
37 -1 45 0 8 0 24 0 35 1 11 1 27 1 35 -1 8 -1 29 0 45 0 44 0 47 -4 83 -2 17
0 32 3 32 4 0 4 20 0 44 -4 25 -3 52 2 60 6 10 5 16 -1 16 -7 0 -7 8 -1 24 5
13 6 26 4 29 -9 8 -10 70 -3 98 4 15 3 32 -1 40 -5 7 -4 21 1 31 6 12 6 18 0
18 -7 0 -7 8 -2 23 5 12 5 31 1 42 -4 11 -3 25 2 32 5 7 5 14 -2 18 -6 4 -7
13 -2 23 5 9 7 28 5 42 -5 34 -6 59 -3 100 1 19 -1 45 -3 57 -3 13 -3 25 1 27
4 2 6 22 4 43 -4 53 -5 73 -2 113 1 19 -1 45 -4 57 -2 13 -1 23 3 23 4 0 5 20
1 44 -4 25 -3 52 2 60 6 10 5 16 -1 16 -7 0 -7 8 -1 24 5 13 6 26 4 29 -9 8
-10 70 -3 98 4 15 3 32 -1 40 -5 7 -4 21 1 31 6 12 6 18 0 18 -7 0 -7 8 -2 23
5 12 5 31 1 42 -4 11 -3 25 2 32 5 7 5 14 -2 18 -6 4 -7 13 -2 23 5 9 7 28 5
42 -5 34 -6 59 -3 100 1 19 -1 45 -3 57 -3 13 -3 25 1 27 4 2 6 22 4 43 -4 53
-5 73 -2 113 1 19 -1 45 -4 57 -2 13 -1 23 3 23 4 0 5 20 1 44 -4 25 -3 52 2
60 6 10 5 16 -1 16 -7 0 -7 8 -2 22 5 13 5 31 2 42 -4 10 -5 37 -3 60 2 22 4
49 3 59 -3 53 -3 65 -1 97 1 19 -1 45 -3 57 -3 13 -2 25 3 28 5 3 5 18 1 33
-4 15 -5 38 -1 52 3 13 3 45 0 71 -3 25 -3 57 1 71 4 14 3 31 -1 38 -5 8 -5
23 0 34 4 12 4 30 0 41 -4 11 -4 32 0 46 4 15 4 32 0 40 -5 7 -5 20 -1 28 5 9
5 25 1 36 -4 11 -4 32 0 46 4 15 4 32 0 39 -5 7 -5 23 0 34 4 12 4 30 0 41 -4
11 -4 32 1 47 4 14 5 29 2 32 -3 3 -5 38 -4 78 1 40 2 80 1 88 0 8 0 24 0 35
1 11 1 27 1 35 -1 8 -1 29 0 45 0 17 0 36 0 43 -1 17 -1 50 0 107 0 17 0 37
-1 45 0 8 0 24 0 35 1 11 1 27 1 35 -1 8 -1 29 0 45 0 17 0 36 0 43 -1 6 -1
19 -1 27 0 8 0 23 0 33 0 9 0 33 1 52 1 19 1 41 0 48 -1 13 -1 28 -1 67 0 14
0 32 0 40 0 43 3 66 11 71 5 3 9 0 9 -6 0 -7 6 -8 18 -2 9 5 26 6 37 2 11 -4
30 -4 43 1 14 5 22 5 22 -2 0 -6 6 -7 16 -1 8 5 35 6 60 2 24 -4 44 -4 44 0 0
3 15 5 33 3 17 -2 37 -4 42 -4 20 0 80 1 100 1 11 1 27 1 35 1 8 -1 31 -1 50
0 38 1 42 1 80 -4 14 -1 36 0 50 3 14 4 40 3 58 -1 17 -4 32 -3 32 1 0 5 10 6
23 4 12 -3 38 -5 57 -4 32 2 44 2 98 -1 9 -1 36 1 58 3 23 2 50 1 60 -3 11 -3
29 -3 42 2 14 5 22 5 22 -2 0 -6 6 -7 16 -1 8 5 35 6 60 2 24 -4 44 -4 44 0 0
3 15 5 33 3 17 -2 37 -4 42 -4 20 0 80 1 100 1 11 1 27 1 35 1 8 -1 31 -1 50
0 38 1 42 1 80 -4 14 -1 36 0 50 3 14 4 40 3 58 -1 17 -4 32 -3 32 1 0 5 10 6
23 4 12 -3 38 -5 57 -4 32 2 44 2 98 -1 9 -1 36 1 58 3 23 2 50 1 60 -3 11 -3
29 -3 42 2 14 5 22 5 22 -2 0 -6 6 -7 16 -1 8 5 35 6 60 2 24 -4 44 -4 44 0 0
3 15 5 33 3 17 -2 37 -4 42 -4 20 0 80 1 100 1 11 1 27 1 35 1 8 -1 31 -1 50
0 38 1 42 1 80 -4 14 -1 36 0 50 3 14 4 40 3 58 -1 17 -4 32 -3 32 1 0 5 10 6
23 4 12 -3 38 -5 57 -4 32 2 44 2 98 -1 9 -1 36 1 58 3 23 2 50 1 60 -3 11 -3
29 -3 42 2 14 5 22 5 22 -2 0 -6 6 -7 16 -1 8 5 35 6 60 2 24 -4 44 -4 44 0 0
4 14 5 30 2 28 -4 30 -2 30 24 -2 44 -1 166 1 197 0 6 0 41 0 77 0 36 0 73 0
83 0 9 0 42 0 72 0 30 0 61 0 68 0 6 0 48 -1 92 -1 69 -1 147 -1 220 0 11 0
72 0 135 0 63 0 131 1 150 1 19 2 40 2 45 -1 10 -2 194 -1 228 1 118 -1 200
-4 204 -6 5 -138 6 -143 0 -3 -3 -17 -2 -30 3 -14 6 -26 6 -29 0 -3 -5 -15 -6
-28 -1 -12 5 -31 5 -42 1 -11 -4 -24 -5 -28 -3 -11 7 -157 6 -164 0 -3 -3 -16
-2 -29 3 -14 6 -26 6 -29 0 -3 -5 -15 -6 -28 -1 -12 5 -31 5 -42 1 -11 -4 -31
-4 -45 0 -25 6 -90 4 -97 -4 -3 -2 -18 0 -34 4 -18 5 -29 5 -29 -1 0 -6 -8 -5
-20 1 -11 6 -20 7 -20 2 0 -5 -21 -6 -48 -2 -26 3 -59 3 -72 0 -14 -4 -37 -3
-52 1 -17 5 -28 4 -28 -2 0 -6 -8 -5 -20 1 -11 6 -20 7 -20 2 0 -5 -22 -6 -48
-2 -27 3 -61 3 -75 -1 -15 -4 -29 -4 -32 1 -3 4 -20 4 -39 0 -19 -4 -40 -4
-46 0 -7 4 -24 5 -39 1 -14 -5 -38 -4 -53 0 -16 4 -28 3 -28 -2 0 -6 -8 -5
-20 1 -11 6 -20 7 -20 2 0 -5 -21 -6 -48 -2 -26 3 -59 3 -72 0 -14 -4 -37 -3
-52 1 -17 5 -28 4 -28 -2 0 -6 -8 -5 -20 1 -11 6 -20 7 -20 2 0 -5 -22 -6 -48
-2 -27 3 -60 3 -74 -1 -14 -4 -31 -3 -38 1 -7 4 -24 4 -39 0 -14 -4 -35 -6
-46 -4 -35 6 -126 7 -131 1 -3 -3 -19 -1 -35 3 -18 5 -29 5 -29 -1 0 -6 -8 -5
-20 1 -11 6 -20 7 -20 2 0 -5 -21 -6 -48 -2 -26 3 -59 3 -72 0 -14 -4 -37 -3
-52 1 -17 5 -28 4 -28 -2 0 -6 -8 -5 -20 1 -11 6 -20 7 -20 2 0 -5 -21 -6 -48
-2 -26 3 -59 3 -72 0 -14 -4 -37 -3 -52 1 -17 5 -28 4 -28 -2 0 -6 -8 -5 -20
1 -11 6 -20 7 -20 2 0 -5 -21 -6 -48 -2 -26 3 -59 3 -72 0 -14 -4 -37 -3 -52
1 -17 5 -28 4 -28 -2 0 -6 -8 -5 -20 1 -11 6 -20 7 -20 2 0 -5 -22 -6 -48 -2
-27 3 -61 3 -75 -1 -15 -4 -29 -3 -33 2 -3 5 -10 7 -15 3 -17 -10 -101 -6
-112 5 -6 6 -7 11 -2 11 10 0 10 55 1 97 -3 13 -2 25 2 27 4 2 6 22 4 43 -4
53 -5 73 -2 113 1 19 -1 45 -4 58 -2 12 -1 22 3 22 4 0 5 20 1 44 -4 25 -3 52
2 60 6 10 5 16 -1 16 -7 0 -7 8 -1 24 5 13 6 26 4 29 -9 8 -10 70 -3 98 4 15
3 32 -1 40 -5 7 -4 21 1 31 6 12 6 18 0 18 -7 0 -7 8 -2 23 5 12 5 31 1 42 -4
11 -3 25 2 32 5 7 5 14 -2 18 -6 4 -7 13 -2 23 5 9 7 28 5 42 -5 34 -6 59 -3
100 1 19 -1 45 -3 57 -3 13 -3 25 1 27 4 2 6 22 4 43 -4 53 -5 73 -2 113 1 19
-1 45 -4 58 -2 12 -1 22 3 22 4 0 5 20 1 44 -4 25 -3 52 2 60 6 10 5 16 -1 16
-7 0 -7 8 -2 23 5 12 5 30 2 41 -4 10 -5 37 -3 60 2 22 4 49 3 59 -3 53 -3 65
-1 97 1 19 -1 45 -3 57 -3 13 -2 25 3 28 5 3 5 18 1 33 -4 15 -5 38 -1 52 3
13 3 45 0 71 -3 25 -3 57 1 71 4 14 3 31 -1 38 -5 8 -5 23 0 34 4 12 4 30 0
41 -4 11 -4 32 0 46 4 15 4 32 0 40 -5 7 -5 20 -1 28 5 9 5 25 1 36 -4 11 -4
32 0 46 4 15 4 32 0 39 -5 7 -5 23 0 34 4 12 4 30 0 41 -4 11 -4 32 1 47 4 14
5 29 2 32 -7 7 -6 143 1 154 2 4 1 14 -4 22 -4 7 -5 23 0 34 4 12 4 30 0 41
-4 11 -4 32 0 46 4 15 4 32 0 40 -5 7 -5 20 -1 28 5 9 5 25 1 36 -4 11 -4 32
0 46 4 15 4 32 0 39 -5 7 -5 23 0 34 4 12 4 30 0 41 -4 11 -4 32 1 47 10 36
-6 41 -140 38 -58 0 -113 -1 -121 -1 -8 0 -116 0 -240 0 -124 0 -232 0 -240 0
-8 0 -116 0 -240 0 -124 0 -236 0 -250 1 -76 3 -282 5 -323 2z"/>
</g>
</svg>
